<svg version="1.1" id="Calque_1" xmlns="http://www.w3.org/2000/svg" xmlns:xlink="http://www.w3.org/1999/xlink" x="0px" y="0px" viewBox="0 0 590 590" style="enable-background:new 0 0 590 590;" xml:space="preserve">
	<style type="text/css">
		.one{fill:inherit;}
		.two{opacity:0.3;fill:inherit;}
	</style>
	<g>
		<path class="one" d="M427.3,119.3l-241-0.1c-29.6,0-53.6,24.1-53.6,53.6c0,2.5,1.7,4.6,3.9,5.3c0.5,0.2,1.1,0.3,1.7,0.4v0 c0.2,0,0.4-0.1,0.6-0.1c2.8-0.3,5-2.6,5-5.5c0-23.4,19-42.4,42.4-42.4c0,0,201.9,0.1,202.3,0.1c2.6,0.1,5.1,0.3,7.6,0.8 c19.1,4.1,33.5,21.1,33.5,41.5v39.7h-0.9c-3.1,0-5.6,2.5-5.6,5.6c0,3.1,2.5,5.6,5.6,5.6h0.9v113.6c0,59.1-12.3,83.2-42.4,83.2 c0,0-251.5-0.1-253.3-0.2c-9.9-0.4-17.8-1.6-21.4-5.4c-2.1-2.2-3-5.5-2.7-10.2c0.4-7.1,5.5-13.5,12.1-21.5 c5.8-7.1,12.4-15.4,16.9-26c3.4-7.9,5.8-17.1,5.8-28.3c0-40.8-0.5-62.5-0.5-62.5c-0.1-2.9-2.3-5.1-5.3-5.4c-0.1,0-0.2-0.1-0.3-0.1 c0,0-0.1,0-0.1,0c-3.1,0.1-5.5,2.6-5.5,5.7c0,0,0.5,21.6,0.5,62.2c0,22.4-10.7,35.6-20.2,47.3c-7.2,8.9-14,17.3-14.5,28.1 c-0.4,7.8,1.6,14,5.8,18.4c6.8,7.2,18.1,8.7,32.4,9c7.7,20.2,27.1,34.7,50,34.7h201h39.4c29.6,0,53.7-24.1,53.7-53.6V172.9 C480.9,143.3,456.9,119.3,427.3,119.3z M420.3,455.2c12.8-9.8,21.2-25.1,21.2-42.4v-189h9.1v189c0,3.1,2.5,5.6,5.6,5.6 c3.1,0,5.6-2.5,5.6-5.6v-189h7.9v189c0,23.4-19,42.4-42.4,42.4H420.3z M186.9,455.2c-16.5,0-30.7-9.6-37.7-23.3h63.4h174.7 c22.2,0,35.3-11.1,43-27.3v8.2c0,23.4-19,42.4-42.4,42.4H186.9z M427.3,130.5c23.4,0,42.4,19,42.4,42.4v39.6h-7.9v-39.6 c0-3.1-2.5-5.6-5.6-5.6c-3.1,0-5.6,2.5-5.6,5.6v39.6h-9.1v-39.6c0-17.3-8.4-32.6-21.2-42.4H427.3z" />
		<path class="one" d="M138.4,223.6c0.2,0,0.3,0.1,0.4,0.1l0,0h5.8c3.1,0,5.6-2.5,5.6-5.6c0-3.1-2.5-5.6-5.6-5.6h-5.8l0,0 c-0.2,0-0.3,0.1-0.5,0.1c-2.9,0.2-5.1,2.6-5.1,5.5C133.2,221.1,135.5,223.4,138.4,223.6z"/>
		<path class="one" d="M202.6,223.7c3.1,0,5.6-2.5,5.6-5.6c0-3.1-2.5-5.6-5.6-5.6h-5.8c-3.1,0-5.6,2.5-5.6,5.6c0,3.1,2.5,5.6,5.6,5.6 H202.6z"/>
		<path class="one" d="M173.6,212.5h-5.8c-3.1,0-5.6,2.5-5.6,5.6c0,3.1,2.5,5.6,5.6,5.6h5.8c3.1,0,5.6-2.5,5.6-5.6 C179.2,215,176.7,212.5,173.6,212.5z"/>
		<path class="one" d="M347.7,223.7c3.1,0,5.6-2.5,5.6-5.6c0-3.1-2.5-5.6-5.6-5.6h-5.8c-3.1,0-5.6,2.5-5.6,5.6c0,3.1,2.5,5.6,5.6,5.6 H347.7z"/>
		<path class="one" d="M289.6,223.7c3.1,0,5.6-2.5,5.6-5.6c0-3.1-2.5-5.6-5.6-5.6h-5.8c-3.1,0-5.6,2.5-5.6,5.6c0,3.1,2.5,5.6,5.6,5.6 H289.6z"/>
		<path class="one" d="M405.7,223.7c3.1,0,5.6-2.5,5.6-5.6c0-3.1-2.5-5.6-5.6-5.6h-5.8c-3.1,0-5.6,2.5-5.6,5.6c0,3.1,2.5,5.6,5.6,5.6 H405.7z"/>
		<path class="one" d="M318.7,223.7c3.1,0,5.6-2.5,5.6-5.6c0-3.1-2.5-5.6-5.6-5.6h-5.8c-3.1,0-5.6,2.5-5.6,5.6c0,3.1,2.5,5.6,5.6,5.6 H318.7z"/>
		<path class="one" d="M225.9,212.5c-3.1,0-5.6,2.5-5.6,5.6c0,3.1,2.5,5.6,5.6,5.6h5.8c3.1,0,5.6-2.5,5.6-5.6c0-3.1-2.5-5.6-5.6-5.6 H225.9z"/>
		<path class="one" d="M376.7,223.7c3.1,0,5.6-2.5,5.6-5.6c0-3.1-2.5-5.6-5.6-5.6h-5.8c-3.1,0-5.6,2.5-5.6,5.6c0,3.1,2.5,5.6,5.6,5.6 H376.7z"/>
		<path class="one" d="M260.6,212.5h-5.8c-3.1,0-5.6,2.5-5.6,5.6c0,3.1,2.5,5.6,5.6,5.6h5.8c3.1,0,5.6-2.5,5.6-5.6 C266.3,215,263.7,212.5,260.6,212.5z"/>
		<path class="one" d="M178,271.3c-1.5,2.7-2.3,5.6-2.3,8.6v11.9c0,3.6,1.4,6.8,4.1,9.3c2.6,2.5,5.8,3.9,9.1,3.9 c1.5,0,3.2-0.4,5.4-1.3l16.4-7.7v87c0,2.6,0.8,5,2,7.2c0.7,1.4,1.5,2.8,2.7,3.9c3,3.1,6.9,4.7,11.1,4.7h7.9c4.4,0,8.3-1.6,11.3-4.7 c3-3,4.5-6.9,4.5-11.1V261.5c0-4.3-1.6-8.2-4.6-11.2c-3-3-6.9-4.6-11.2-4.6h-7.6c-3.8,0-7.7,1-11.9,3.1l-2.3,1.2l-28,14.8 C181.8,266.2,179.6,268.4,178,271.3z M186.9,279.9c0-1,0.3-2,0.9-3.1c0.5-0.9,1.1-1.5,2-2l30.3-16c2.5-1.2,4.8-1.9,6.8-1.9h7.6 c1.4,0,2.4,0.4,3.3,1.3c0.9,0.9,1.3,1.9,1.3,3.3v121.3c0,1.3-0.4,2.3-1.3,3.3c-0.9,0.9-1.9,1.3-3.3,1.3h-7.9 c-1.3,0-2.3-0.4-3.2-1.4c0,0,0,0,0,0c-1-1-1.4-1.9-1.4-3.2V287c0-1.9-1-3.7-2.6-4.7c-0.9-0.6-1.9-0.9-3-0.9c-0.8,0-1.6,0.2-2.4,0.5 l-1.2,0.6l-23.8,11.2c-0.2,0-0.6,0-1.3-0.7c-0.6-0.5-0.6-0.9-0.6-1.2V279.9z"/>
		<path class="one" d="M266.1,345.8v6.8c0,4.2,1.6,8.1,4.7,11.1c3,3,6.9,4.7,11.1,4.7H330v14.4c0,4.2,1.6,8.1,4.7,11.1 c3,3.1,6.9,4.7,11.2,4.7h7.9c4.4,0,8.3-1.6,11.3-4.7c2.9-3,4.5-6.9,4.5-11.1v-14.4h7.8c4.4,0,8.3-1.6,11.3-4.7 c3-3,4.5-6.9,4.5-11.1v-5.5c0-4.2-1.6-8.1-4.7-11.2c-3.1-3-6.9-4.6-11.1-4.6h-7.8v-69.8c0-4.4-1.6-8.2-4.6-11.2 c-3-3-6.9-4.6-11.2-4.6h-10.6c-3.3,0-6.5,0.8-9.4,2.4c-2.9,1.5-5.4,3.7-7.3,6.4l-56.9,80.2C267.3,338.1,266.1,341.8,266.1,345.8z M343.2,256.9h10.6c1.4,0,2.4,0.4,3.3,1.3c0.9,0.9,1.3,1.9,1.3,3.3v75.4c0,3.1,2.5,5.6,5.6,5.6h13.4c1.3,0,2.3,0.4,3.2,1.4 c1,1,1.4,1.9,1.4,3.2v5.5c0,1.3-0.4,2.3-1.3,3.3c-0.9,0.9-1.9,1.3-3.2,1.3H364c-3.1,0-5.6,2.5-5.6,5.6v20c0,1.3-0.4,2.3-1.4,3.3 c-0.9,0.9-1.9,1.3-3.2,1.3h-7.9c-1.3,0-2.3-0.4-3.2-1.4c-1-1-1.4-1.9-1.4-3.2v-20c0-3.1-2.5-5.6-5.6-5.6h-53.7 c-1.3,0-2.3-0.4-3.2-1.4c-1-1-1.4-1.9-1.4-3.2v-6.8c0-1.7,0.5-3.3,1.4-4.7l56.9-80.2c0.9-1.3,2-2.2,3.3-3 C340.3,257.3,341.7,256.9,343.2,256.9z"/>
		<path class="one" d="M300.3,333.7c-1.2,1.7-1.4,4-0.4,5.8c1,1.9,2.9,3.1,5,3.1h30.8c3.1,0,5.6-2.5,5.6-5.6v-42.7 c0-2.4-1.6-4.6-3.9-5.3c-2.3-0.8-4.8,0.1-6.3,2.1L300.3,333.7z M330,331.3h-14.2l14.2-19.7V331.3z"/>
		<path class="one" d="M300.9,169.7l-1.7-0.2l-1.9-0.2l-4.6-0.5l-11.5-1.2c-2.2-10.8-11.8-18.9-23.3-18.9 c-13.1,0-23.8,10.7-23.8,23.8c0,13.1,10.7,23.8,23.8,23.8c11.4,0,21-8.1,23.3-18.9l11.7-1.2l3.5-0.4l3.3-0.4l1.3-0.1 c1-0.1,1.7-0.8,2.1-1.6c0.2-0.4,0.4-0.7,0.4-1.2C303.4,171,302.4,169.8,300.9,169.7z M257.9,185c-6.9,0-12.6-5.6-12.6-12.6 c0-6.9,5.6-12.6,12.6-12.6c6.9,0,12.6,5.6,12.6,12.6C270.4,179.4,264.8,185,257.9,185z"/>
	</g>
	<g>
		<path class="two" d="M427.3,130.4h-6.9c12.8,9.8,21.2,25.1,21.2,42.4v39.6h9.1v-39.6c0-3.1,2.5-5.6,5.6-5.6c3.1,0,5.6,2.5,5.6,5.6 v39.6h7.9v-39.6C469.7,149.4,450.7,130.4,427.3,130.4z"/>
		<path class="two" d="M461.8,412.7c0,3.1-2.5,5.6-5.6,5.6c-3.1,0-5.6-2.5-5.6-5.6v-189h-9.1v189c0,17.3-8.4,32.6-21.2,42.4h6.9 c23.4,0,42.4-19,42.4-42.4v-189h-7.9V412.7z"/>
		<path class="two" d="M430.3,404.5c-7.7,16.2-20.8,27.3-43,27.3H149.2c7,13.8,21.2,23.3,37.7,23.3h201c23.4,0,42.4-19,42.4-42.4 V404.5z"/>
		<path class="two" d="M292.6,168.8l4.6,0.5l1.9,0.2l1.7,0.2c1.4,0.2,2.5,1.3,2.5,2.8c0,0.4-0.3,0.8-0.4,1.2 c-0.4,0.8-1.1,1.5-2.1,1.6l-1.3,0.1l-3.3,0.4l-3.5,0.4l-4.8,8.6c-1.5,2.7-0.5,6.1,2.2,7.6c0.9,0.5,1.8,0.7,2.7,0.7 c2,0,3.9-1,4.9-2.9l3.9-7.1l2.1-3.7l4.2,0.6l8.1,1.2c3.1,0.4,5.9-1.7,6.4-4.7c0.4-3.1-1.7-5.9-4.7-6.4l-13-1.9l-6.8-14.1 c-1.3-2.8-4.7-3.9-7.5-2.6c-2.8,1.4-4,4.7-2.6,7.5L292.6,168.8z"/>
		<path class="two" d="M552.2,235c-0.3,4.1-0.5,8.3-0.8,12.4c-0.4,6.7,10,6.7,10.4,0c0.1-1.3,0.2-2.5,0.2-3.8 c4.7,4.4,11.7-2.8,7.1-7.5c-2.9-3.1-6.4-4.8-10.4-6.1C555.4,228.9,552.4,231.7,552.2,235z"/>
		<path class="two" d="M507.9,518.4c-1.8,0.9-3.6,1.8-5.4,2.7c-0.8,0.4-1.9,0.7-2.6,1.3c-0.2,0.1-0.4,0.2-0.6,0.2 c0.4,0,0.8,0,1.7,0.2c0.1,0.1,0.3,0.2,0.4,0.3c-4.2-1.5-9.5,2.7-6.4,7.2c2.7,3.9,6.5,2.8,10.2,1.1c1.8-0.9,3.6-1.8,5.4-2.7 c0.8-0.4,1.9-0.7,2.6-1.3c0.2-0.1,0.4-0.2,0.6-0.2c-0.4,0-0.8,0-1.7-0.2c-0.1-0.1-0.3-0.2-0.4-0.3c4.2,1.5,9.5-2.7,6.4-7.2 C515.4,515.6,511.5,516.7,507.9,518.4z"/>
		<path class="two" d="M107.4,131.1c-3,0.9-6,1.9-8.9,2.8c-6.4,2-3.7,12.1,2.8,10.1c3-0.9,6-1.9,8.9-2.8 C116.5,139.2,113.8,129.1,107.4,131.1z"/>
		<path class="two" d="M325.9,93.9c2.7-1.1,5.4-2.2,8.1-3.3c6.1-2.5,3.5-12.6-2.8-10.1c-2.7,1.1-5.4,2.2-8.1,3.3 C317,86.3,319.7,96.4,325.9,93.9z"/>
		<path class="two" d="M488.4,483.5c-1.8,0-3.5,0-5.3,0c-6.7,0-6.7,10.4,0,10.4c1.8,0,3.5,0,5.3,0C495.1,494,495.1,483.5,488.4,483.5 z"/>
		<path class="two" d="M546.2,437.9c-1.6,0.2-3.1,0.4-4.7,0.6c-3.6,0.5-4.3,3.6-3.3,6.3c-5,1.6-4.5,10.1,1.6,10.1c1.6,0,3.2,0,4.9,0 c2.2,2.2,6.1,2.7,7.9-0.9c0.1-0.2,0.1-0.4,0.2-0.6c1.2-1.2,1.6-3,1.3-4.7c0.3-2.8-0.2-5.6-2-8.4 C550.7,438.1,548.6,437.6,546.2,437.9z"/>
		<path class="two" d="M74.8,77.7c1.9-0.9,3.7-1.8,5.5-2.8c0.8-0.4,1.9-0.8,2.6-1.3c0.3-0.2,0.5-0.3,0.7-0.3c-0.2,0-0.5-0.1-0.8-0.1 c3.9,0.4,8-3.5,5.3-7.6c-1.6-2.4-3.7-2.8-5.8-2.5c1.2-4.8-6.3-8.5-9.7-3.6c-2.7,4-5.5,7.9-8.2,11.9c-1,1.4-1,3.8,0,5.3 C67.1,80.8,71.2,79.3,74.8,77.7z"/>
		<path class="two" d="M512.4,388.1c-6.7,0-6.7,10.4,0,10.4C519.1,398.5,519.1,388.1,512.4,388.1z"/>
		<path class="two" d="M520.5,473.4c-6.7,0-6.7,10.4,0,10.4C527.2,483.8,527.2,473.4,520.5,473.4z"/>
		<path class="two" d="M571.5,470.5c-2.9-5.6-10.9-1.3-9.3,4.2c-0.4,0-0.7,0-1.1,0c-6.7,0-6.7,10.4,0,10.4c0.8,0,1.6,0,2.4,0 c2,1.7,5.6,1.8,7.8-0.4c3-1.2,3.7-5.2,2.1-7.7C573.2,474.8,572.6,472.7,571.5,470.5z"/>
		<path class="two" d="M546.3,508c-2.7,0-5.4,0-8.2,0c-6.7,0-6.7,10.4,0,10.4c2.7,0,5.4,0,8.2,0C553.1,518.4,553.1,508,546.3,508z"/>
		<path class="two" d="M511.7,281c-5.4-4-10.6,5.1-5.3,9c0.8,0.6,1.6,1.4,2.3,2.1c0.2,0.2,0.4,0.4,0.6,0.7c-0.1,3.5,3.6,7.3,7.8,5.1 C525.6,293.4,516.1,284.2,511.7,281z"/>
		<path class="two" d="M375,493.8c-1.3,2.3-0.3,0.7,0.9-0.2c1-0.7,1.7-1.3,2.4-2.4c3.3-5.9-5.8-11.2-9-5.3c1.3-2.3,0.3-0.7-0.9,0.2 c-1,0.8-1.7,1.3-2.4,2.4C362.7,494.4,371.7,499.7,375,493.8z"/>
		<path class="two" d="M197.3,498.7c-6.1,0.5-4.6,5.5-6.7,9c-3.3,5.9,5.7,11.1,9,5.3c1.1-1.9,1-4.7,1.9-6.4c-0.1,0.1-0.2,0.1-0.3,0.2 C203.4,503.5,202.1,498.3,197.3,498.7z"/>
		<path class="two" d="M313.9,486.6c-3.1-0.1-5.6,2.9-6.6,3.3c-4.7,1.7-4.3,7.9-1.1,9.8c-0.6,4,4.9,8,9,4.5 c4.2-3.6,10.5-6.4,6.4-13.1C320,488.6,317,486.7,313.9,486.6z"/>
		<path class="two" d="M358.7,66.9c3,0.7,6.6-0.9,6.5-4.8c0,0,1.2-2.3,1.4-3c0.7-3-1.5-7-5-6.6c-1.9,0.2-3.3,1.1-4.7,2.1 c-2.2,0.2-4.5,1.4-4.8,3.7c-0.1,0.7-0.2,1.5-0.3,2.2C351.2,65,355.5,67.6,358.7,66.9z"/>
		<path class="two" d="M18.9,214.5c-4.2,0.7-4.6,5-2.6,7.8c-4.6,2.9-1.9,11.3,4,9.4c2.8-0.9,5.6-1.8,8.3-2.7c3.2-1,4.1-4.1,3.4-6.7 c0.2-0.1,0.3-0.3,0.5-0.4c4.4-3.7-0.5-9.4-5.1-8.7C24.6,213.6,21.8,214,18.9,214.5z"/>
		<path class="two" d="M450.3,530.2c-4.3-1.6-8.5-2.4-13-2.7c-6.7-0.4-6.7,10,0,10.4c3.6,0.2,6.9,1,10.3,2.3 C453.8,542.7,456.5,532.6,450.3,530.2z"/>
		<path class="two" d="M80.7,368.1c-0.1-1.3-0.1-2.5-0.5-3.8c-1.4-3.6-5.4-4.1-8.1-2.7c-2.6-1.2-6.3-0.6-7.5,3 c-0.5,1.4-0.6,2.4-0.5,3.8c0.1,3.1,2.3,4.9,5.2,5.2c2.7,0.3,5,0,7.6-0.5C79,372.7,80.8,370.3,80.7,368.1z"/>
		<path class="two" d="M42.3,109.5c0.2,0.3,0.3,0.6,0.5,0.9c-1,3,0.6,7.1,4.7,7.1c4.1,0,5.7-3.9,4.8-6.9c2.2-1.8,3.3-4.7,2-7.6 c-2.2-4.7-9.3-5.8-13.4-3.1C36.5,102.6,38.6,108.5,42.3,109.5z"/>
		<path class="two" d="M18.5,456.5c-0.5-0.1-1-0.3-1.5-0.4c-4.6-1.3-7.2,3.3-6.2,6.8c-0.1,0.2-0.2,0.4-0.3,0.6 c-2.8,6.1,6.2,11.4,9,5.3c0.7-1.5,1.4-3,2.1-4.5C23,461.1,22,457.5,18.5,456.5z"/>
		<path class="two" d="M179.6,93.8c0.3,0.1,0.9,0.2,1.6,0.2c0.6,0,1.4-0.1,2.1-0.4c1.5-0.5,3.1-2.1,3.7-3.5c0.2-0.5,0.3-1,0.3-1.5 c1.8-3.8-0.4-6.2-1.1-6.9c-1.5-1.4-3.6-1.7-5.5-1c-0.9-0.2-1.7,0.2-2.5,0.6c-1.8,1-2.6,2.7-2.8,3.4c-1.8,2.7-1.1,6.3,1.7,8.2 C177.6,93.3,178.9,93.7,179.6,93.8z"/>
		<path class="two" d="M245.8,516.7c-0.2-0.2-3.4,0.1-6.5,0.4c-0.6,0-1.3,0.1-1.9,0.1c-1.4-0.8-3.1-0.9-4.7-0.3 c-3.7,1.6-5.7,5.8-4.5,9.5c0.6,1.8,2,3.1,3.8,3.5c0.2,0,0.5,0.1,0.9,0.1c3.4,0,14.2-1.5,16.6-5c1.2-1.8,1.2-4.3,0-6.1 C248.7,517.7,247.3,516.9,245.8,516.7z"/>
		<path class="two" d="M536.4,327.2c-0.1-0.1-0.2-0.1-0.2-0.2c0-0.1,0-0.2-0.1-0.3c-0.4-1.8-1.7-3.3-3.5-4.2c-2-1-4.6-1.1-6.7-0.3 c-3,1.2-4.7,4.2-4.5,7.7c0.3,4.1,3,7.2,6.8,8c0.6,0.1,1.2,0.2,1.8,0.2c2.9,0,5.7-1.3,7.4-3.5C539.2,332.2,538.7,329,536.4,327.2z"/>
		<path class="two" d="M83,147.6c-1.3-0.5-2.8-0.4-4,0.1c-0.4,0.1-0.8,0.1-1.3,0.2c-2.7,0.5-5.5,0.9-6.7,4c-0.7,1.7-0.4,3.7,0.7,5.2 c1.5,1.9,3.8,2.9,6.8,2.9c0.9,0,1.8-0.1,2.8-0.2c1.2-0.2,3.3-0.5,5-2.2c1.7-1.7,2.2-4.3,1.2-6.5C86.8,149.5,84.8,148.1,83,147.6z"/>
		<path class="two" d="M549.9,102.4C549.9,102.4,549.9,102.4,549.9,102.4c0.5,0,1-0.1,1.4-0.2c0.1,0,0.2,0,0.3,0 c2.9,0.2,5.4-1.9,5.7-4.8c0.2-2.2-0.5-4.3-2-6c-1.6-1.8-3.8-2.9-6.2-3.1c-0.8,0-1.4,0.1-2.1,0.3c-1.2-0.1-3.7-0.1-5.5,2.3 c-1,1.4-1.3,3.7-0.6,5.3C542.1,99.2,546.7,102.4,549.9,102.4z"/>
		<path class="two" d="M121.8,84.3c0.7,0.2,1.9,0.5,3.2,0.5c0.8,0,1.7-0.1,2.5-0.4c2.1-0.7,3.8-2.5,4.5-5.1c0.7-2.5,0.3-4.9-1.1-6.5 c-1.1-1.2-3-2.6-6-2.3c-0.7-0.1-1.4,0-2.2,0.2c-1.8,0.6-3.3,1.9-4.2,3.9c-0.8,1.8-1.3,4.5-0.3,6.7C119,82.9,120.3,83.9,121.8,84.3z"/>
		<path class="two" d="M442.5,62.3c0.7,0.2,1.9,0.5,3.2,0.5c0.8,0,1.6-0.1,2.5-0.4c2.1-0.7,3.8-2.5,4.5-5c0.7-2.5,0.3-4.8-1.1-6.5 c-1-1.2-3.4-3.1-7.7-2c-2.3,0.6-3.9,2.6-3.9,4.9c-0.5,0.6-1,1.3-1.2,2.2C438,58.7,439.7,61.5,442.5,62.3z"/>
		<path class="two" d="M261,492.8c-1.3-0.8-2.8-1-4.2-0.6c-0.1-0.2-0.3-0.3-0.4-0.5c-1.9-2.2-5.2-2.4-7.4-0.6 c-2.2,1.9-2.4,5.2-0.6,7.4c1.9,2.2,3.7,4,5.4,5.1c0.9,0.6,1.9,0.9,2.9,0.9c1.6,0,3.1-0.7,4.1-2c0.2-0.3,1-1.3,1.7-2.5 C264.2,497.6,263.5,494.3,261,492.8z"/>
		<path class="two" d="M16.2,278c-2.1,0.6-3.8,1.9-4.8,3.6c-1,1.6-1.2,3.5-0.7,5.3c0.4,1.6,1.6,2.8,3.1,3.4c1.1,0.4,2.3,0.6,3.5,0.6 c2.3,0,4.6-0.8,6.2-2.3c1.6-1.5,2.5-3.5,2.4-5.7c-0.1-2.2-1.2-4.2-3-5.5C20.8,276,18,276.3,16.2,278z"/>
		<path class="two" d="M155.3,106.7c-1.8-4.3-4.8-4.4-8.9-5.2c-6.6-1.3-9.4,8.7-2.8,10.1c0.9,0.2,2,0.5,3,0.6c1.3,1.8,2,1,1.6,0.4 C152.1,114,157.2,111.4,155.3,106.7z"/>
		<path class="two" d="M528.8,208.2h4.4c2.9,0,5.2-2.3,5.2-5.2v-3c0-3.9-4.8-6.3-7.9-4.5c-0.6-0.2-1.2-0.4-2-0.3 c-2.9,0.1-5.1,2.5-5,5.4l0.1,2.5C523.7,206,526,208.2,528.8,208.2z"/>
		<path class="two" d="M140.7,62c0,0.2,0.2,0.3,0.3,0.5c0.1,0.2,0.1,0.5,0.2,0.7c0.8,2.5,3.4,4.3,6.1,3.7c1.5,0.5,3,0.8,4.6,1.1 c0.3,0.1,0.9,0.1,1.7,0.1c1.4,0,3.2-0.3,4.9-1.6c2.3-1.9,3.1-4.8,2-7.5c-1.3-3.3-5.5-5.7-9.1-5.2c-0.2,0-0.4,0.1-0.6,0.1 c-0.2,0-0.4-0.1-0.6-0.2c-1.3-0.1-2.5-0.4-3.7-0.9c-3.7-1.3-7.4,2.7-6.4,6.3c0,0,0,0.1,0,0.1c0.1,0.2,0.1,0.4,0.2,0.7 C140.2,60.7,140.3,61.4,140.7,62z"/>
		<path class="two" d="M298.4,60.3c1.5,0.6,3.1,0.9,4.8,0.9c1.8,0,3.6-0.4,5.3-1.1c3.1-1.3,5.4-3.6,6.5-6.4c1-2.7-0.3-5.7-3-6.7 c-2.7-1-5.7,0.3-6.7,3c-0.1,0.1-0.2,0.2-0.3,0.3c-0.8-2.1-3.1-3.4-5.3-3.3c-2.9,0.2-5,2.7-4.8,5.6l0.3,3.4 C295.4,57.8,296.6,59.5,298.4,60.3z"/>
		<path class="two" d="M574,408.4c0.4-2.9-1.6-5.5-4.4-5.9l-4-0.5c-1.4-0.2-2.8,0.2-3.9,1c-2.7,2.1-4.1,5.2-3.7,8.4 c0.4,3.4,2.6,6.4,6,8c0.7,0.3,1.4,0.5,2.1,0.5c1.9,0,3.8-1.2,4.7-3.1c0.7-1.4,0.6-3,0-4.4C572.4,411.8,573.7,410.3,574,408.4z"/>
		<path class="two" d="M90.9,515.2c-1.8-1-4-0.8-5.7,0.5l-6.7,5.2c-2,1.6-2.6,4.3-1.4,6.6c0.9,1.7,2.3,3.2,4.1,4.2 c0.8,0.5,1.7,0.7,2.6,0.7c1,0,2.1-0.3,3-0.9l3.5-2.4c0.1-0.1,0.2-0.1,0.3-0.2c2-1,3.5-2.9,4.1-5.3 C95.3,520.1,93.9,516.8,90.9,515.2z"/>
		<path class="two" d="M381.8,520.5c-2.5-1.4-5.9-0.4-7.3,2.1c-0.3,0.5-0.5,1-0.6,1.5c-0.2,0.3-0.4,0.6-0.6,0.9 c-1.5,2.7-1.3,5.7,0.5,7.9c0.7,0.8,2.4,2.4,5.6,2.4c1.1,0,2.3-0.2,3.7-0.6c1.5-0.5,2.7-1.6,3.2-3.1 C387.8,527.8,385.1,522.3,381.8,520.5z"/>
		<path class="two" d="M500.6,445c1,1.3,2.5,2.1,4.2,2.1c0.1,0,0.1,0,0.2,0l4.3-0.1c2.3-0.1,4.2-1.6,4.8-3.8c0.6-2,1.5-5.3,0.1-8.7 c-1.8-4.3-6.9-6.8-11.4-5.5c-3.8,1-7.4,4.7-6.3,11.8C496.8,442.9,498.5,444.6,500.6,445z"/>
		<path class="two" d="M264.4,82.8c-2.4-6.2-12.5-3.5-10.1,2.8c0.7,1.8,3.1,4,3.6,5.1c2.4,6.2,12.5,3.5,10.1-2.8 C267.2,86.1,264.8,83.9,264.4,82.8z"/>
		<path class="two" d="M95.4,311.3c1.1,0.4-0.8-1.7-1.1-2c-0.9-1-1.4-1.8-2.6-2.6c-2-1.4-4.7-0.6-6.3,0.8c-0.1,0-0.1,0.1-0.2,0.1 c-3.1,2.7-1.5,6.5,1.3,8c0,0-0.1,0-0.1,0c-1.4-0.9,1.5,2.4,2.1,3c1.2,1.2,2.5,2.1,4.1,2.7C99,323.5,101.7,313.4,95.4,311.3z"/>
		<path class="two" d="M199.9,67.2c-0.1-0.2,0.5,2.4,0.7,3.6c0.4,2.3,0.7,4.6,1,6.9c0.5,3.6,0.6,7.6,3,10.5c4.2,5.2,11.6-2.2,7.4-7.4 c1.9,2.3,0.7,0.9,0.5-0.5c-0.1-0.9-0.3-1.8-0.4-2.7c-0.4-2.7-0.8-5.3-1.2-8c-0.6-3.9-1-8.5-5.3-10.1c-5.1-1.8-7.8,4.4-5.4,8 C200.2,67.4,200,67.3,199.9,67.2z"/>
		<path class="two" d="M513.7,125.2c1.6-0.4,3-1.5,4.3-2.6c2.3-0.1,4.7-1.3,5.1-3.7c0.1-1,0.3-1.9,0.4-2.9c0.7-4.7-4.2-7.4-7.4-6.2 c-3.2-1.2-7.2,0.4-6.9,4.6c0.1,1.7-2.1,3.7-2,5.7C507.2,123.5,510.3,126.1,513.7,125.2z"/>
		<path class="two" d="M580.5,154.5c-1.7-3.4-8.1-4-9.9,0.8c-0.2,0.4-0.5,0.6-0.9,0.9c-3.5,2.8-0.6,9.2,3.7,8.9 c2-0.1,3.9-0.2,5.9-0.4C585.4,164.4,585.8,155.4,580.5,154.5z"/>
		<path class="two" d="M565.3,144.4c0.4,0.1,0.8,0.3,1.1,0.4c4.4,1.6,7-2.7,6.1-6.3c0.2-0.7,0.5-1.3,0.7-2c2.3-6.3-7.8-9.1-10.1-2.8 c-0.5,1.4-1,2.8-1.5,4.3C560.7,140.8,562.8,143.5,565.3,144.4z"/>
		<path class="two" d="M60.5,233.8c0.4,0.1,0.8,0.2,1.2,0.3c4.3,1.2,6.9-2.8,6.3-6.2c2.7-6-6.2-11.3-9-5.2c-0.5,1.1-1.1,2.3-1.6,3.4 C55.9,229.1,57,232.9,60.5,233.8z"/>
		<path class="two" d="M122.7,473.3c0.2-2.9-2-5.3-4.9-5.5c-3.2,0-5.3,2-5.5,4.9l-0.3,5.8c-0.2,2.9,2,5.3,4.9,5.5c0.1,0,0.2,0,0.3,0 c2.7,0,5-2.1,5.2-4.9L122.7,473.3z"/>
		<path class="two" d="M260.8,65.9c0.2,0,0.4,0,0.6,0c1.5,0,2.7-0.4,3.7-0.9h0c2.4,0,4.5-1.6,5.1-4.1c0.4-1.9-0.2-3.7-1.5-4.9 c0,0,0,0,0,0c-0.5-2.8-3.6-4.7-6.5-4.3c-2.1-0.1-5.6-0.2-7.8,2.4c-1,1.2-1.7,3.8-1.5,5.3C253.5,63,256.6,65.5,260.8,65.9z"/>
		<path class="two" d="M169.6,512.2c-1.1-0.2-3.1-0.5-5.2,0.3c-2.7,1-4.1,4.2-3,6.9c0.3,0.7,0.7,1.3,1.2,1.8 c-1.3,1.9-1.1,4.6,0.5,6.4c1,1.1,2.4,1.7,3.9,1.7c1.2,0,2.5-0.4,3.5-1.4c3-2.7,3.7-9.4,3.7-10.9C173.9,514.6,172,512.6,169.6,512.2 z"/>
		<path class="two" d="M403.8,495.2c-0.8-0.1-2.5-0.4-4.3,0.2c-1.8,0.6-3.2,2-3.9,3.8c-0.2,0.5-0.3,1.2-0.3,1.9 c-2.2,4.1-0.1,6.6,0.9,7.6c1,0.9,2.3,1.4,3.5,1.4c0.8,0,1.6-0.2,2.3-0.6c1.1,0.1,2-0.1,3-0.6c1.9-1,2.7-2.8,3.1-3.9 c0.8-1.1,1.3-3.4,1-4.8c-0.3-1.6-1.2-3-2.6-4C405.9,495.8,404.4,495.4,403.8,495.2z"/>
		<path class="two" d="M496,236.4c0.1,2.8,2.4,5,5.2,5c0.1,0,0.2,0,0.2,0l5-0.2c1.1,0,2.7-0.2,4.3-1.3c1.8-1.3,2.7-4.1,2-6.2 c-0.7-2.1-3.1-3.9-5.3-4c-1.6-0.1-2.5,0.4-3.4,1.2l-3.2,0.1C498.1,231.1,495.8,233.5,496,236.4z"/>
		<path class="two" d="M504.4,162.3c0.4,1.3,1.5,2.6,2.7,3.3c0.9,0.5,1.9,0.6,2.5,0.7c0.7,0.3,1.5,0.5,2.3,0.5c0.1,0,0.1,0,0.2,0 c3-0.1,5.5-2.1,6.1-4.9c0.6-2.7-0.6-5.5-3.2-6.8c-0.8-0.4-1.6-0.6-2.4-0.7c-0.8-1.3-2.1-2.2-4.1-2.2c-4.7,0-6.1,5.1-4.1,8.2 C504.2,161,504.2,161.7,504.4,162.3z"/>
		<path class="two" d="M51.5,253.2c-1.6-0.3-3.9-0.1-6.4,2c-1.8,1.5-2.8,3.3-3,5.2c-0.1,1.4,0.6,3.5,1.4,4.6c1.5,1.8,3.8,2.6,5.9,2.6 c0.8,0,1.6-0.1,2.3-0.3c2.1-0.5,3.6-1.7,4.5-2.5c1.8-1.5,2.5-4.6,1.5-6.7c-0.5-1.1-1.5-2-2.6-2.6C54.3,254.3,53,253.4,51.5,253.2z" />
		<path class="two" d="M46.6,323.4c-0.1,0-0.1,0-0.2,0c-3.4,0.1-6.8,0-10.2-0.3c-3-0.2-5.4,1.8-5.7,4.7c-0.3,2.9,1.8,5.4,4.7,5.7 c2.7,0.3,5.4,0.4,8.2,0.4c1.2,0,2.3,0,3.4-0.1c2.9-0.1,5.1-2.5,5-5.4C51.7,325.6,49.3,323.4,46.6,323.4z"/>
		<path class="two" d="M429.3,73.8c0.1,0.9,0.4,1.8,1,2.6c1,1.4,2.6,2.2,4.2,2.2c1.1,0,2.1-0.3,3.1-1c1.2-0.9,3.2-2.7,3.5-5.5 c0.2-1.5-0.6-3.7-1.6-4.8c-0.6-0.7-1.3-1.1-1.9-1.4c-0.7-1.1-1.8-1.9-3.1-2.3c-2.4-0.7-4.9,0.4-6.3,2.5c-1.2,1.9-1.1,5.1,0.2,6.8 C428.7,73.2,429,73.6,429.3,73.8z"/>
		<path class="two" d="M68.8,457.7C68.8,457.6,68.7,457.6,68.8,457.7c-0.7-1.1-2.1-3-4.8-3.4c-1.4-0.2-3.6,0.4-4.7,1.3 c-3.1,2.4-4.7,8.7-3.2,12.4c0.4,1,1.3,2,2.4,2.7c0.8,2,2.7,3.2,4.8,3.2c0.5,0,1.1-0.1,1.6-0.3c3.3-1.1,5.9-3.4,6.9-6.4 c0.9-2.6,0.6-5.3-0.9-7.6C70.4,458.7,69.7,458.1,68.8,457.7z"/>
		<path class="two" d="M445.1,503.4c0.3,0,0.5,0.1,0.8,0.1c0.5,0,1-0.1,1.5-0.2c2-0.6,3.7-2.1,4.7-4.4c1-2,1.6-5.4,0.4-8.1 c-0.7-1.5-1.9-2.6-3.5-2.9c-1.6-0.4-4.3-1.1-7.2-0.2c-2.4,0.8-4.2,2.9-5,5.9c-0.8,2.9-0.4,5.6,1.2,7.4 C439.2,502.3,441.3,503.8,445.1,503.4z"/>
		<path class="two" d="M132.4,523.3c-1.4-0.4-3.7-0.9-6.3-0.1c-2.2,0.7-3.9,2.7-4.7,5.3c-0.7,2.6-0.3,5.1,1.2,6.8 c1.1,1.3,3.1,2.6,6.4,2.3c0.2,0,0.5,0,0.7,0c0.5,0,1-0.1,1.5-0.2c1.9-0.6,3.4-2,4.4-4c0.9-1.9,1.4-4.8,0.4-7.2 C135.2,524.8,133.9,523.7,132.4,523.3z"/>
		<path class="two" d="M44.6,422.7c-5.8-1.6-13.5-1.7-18.6,5.7c-5.9,1.1-5.7,10.6,0.8,10.3c0.6,0,1.1-0.1,1.7-0.1 c1.4,4,7.1,6.1,9.1,1.3c0.4-1,1-1.8,2-2.4c0.1-0.1,0.2-0.2,0.3-0.2c0.6,0.2,1.2,0.4,1.8,0.4c0.1,0,0.1,0,0.2,0 c2.9-0.1,5.2-2.3,5.1-5.1c0.7-1.2,1.6-2.9,1.5-4.9C48.3,425.3,46.8,423.3,44.6,422.7z"/>
		<path class="two" d="M33.9,395.4c1.1,0.4,2.2,0.5,3.3,0.5c1.5,0,3.1-0.3,4.4-1c0.3,0,0.5,0,0.8,0c2.9-0.1,5.1-2.6,5-5.4l-0.2-3.9 c-0.1-2.8-2.4-5-5.2-5h-6.5c-1.4,0-2.7,0.6-3.7,1.5c-1,1-1.5,2.3-1.5,3.7l0,4.5C30.3,392.7,31.7,394.7,33.9,395.4z"/>
		<path class="two" d="M304.6,533.5c-2.7-1.1-5.9-1.1-8.7,0.1c-2.7,1.1-4.7,3.1-5.6,5.6c-1,2.7,0.6,5.8,3.3,6.8 c0.6,0.2,1.3,0.4,1.9,0.4c1.5,0,2.9-0.6,3.9-1.6c1,0.9,2.4,1.3,3.9,1.2c2.9-0.3,5-2.8,4.7-5.7l-0.2-2.6 C307.6,536,306.4,534.3,304.6,533.5z"/>
		<path class="two" d="M12.8,186.7c0.1,0.2,0.1,0.5,0.3,0.6c2,2.6,5,3.2,7.5,3.2c1.4,0,2.6-0.2,3.3-0.3c1.2-0.2,3.7-0.5,5.6-2.4 c1.5-1.5,2.2-4.8,1.3-6.7c-0.9-2.1-2.8-3.5-5.1-3.8c-0.9-0.3-1.9-0.2-2.8,0c-0.6-2.7-2.3-5-5-6.3c-2.6-1.3-5.9-0.7-7.2,1.9 c-0.7,1.5-0.8,3.1-0.1,4.3c-1.2,0.8-2,2.1-2.2,3.6c-0.4,2.8,1.6,5.5,4.4,5.9L12.8,186.7z"/>
		<path class="two" d="M99.7,202.2c-5.4-1.8-13.4,0.1-16.1,5.5c-1.3,2.6-0.3,5.9,2.3,7.1c0.8,0.4,1.6,0.6,2.4,0.6 c1.9,0,3.6-1,4.5-2.8c0.2-0.2,0.5-0.3,0.9-0.4c1,1.9,3,3,5.2,2.8c2.9-0.3,4.9-2.9,4.6-5.8l-0.3-2.6 C103,204.5,101.6,202.8,99.7,202.2z"/>
		<path class="two" d="M573.5,299.3c-5.2-1.7-12.6,0-15.3,5.2c-1.3,2.6-0.4,5.9,2.1,7.2c0.8,0.4,1.7,0.6,2.5,0.6 c0.9,0,1.7-0.2,2.5-0.7c-1.3,3.1,0.2,7.4,4.6,7.4c4.5,0,5.9-4.7,4.4-7.8c2-0.9,3.3-3,3.1-5.3l-0.3-2.4 C576.9,301.7,575.5,300,573.5,299.3z"/>
		<path class="two" d="M492.4,74c0.8,0.4,1.6,0.6,2.5,0.6c1.1,0,2.3-0.4,3.2-1.1l5.7-4.4c2-1.5,2.6-4.3,1.4-6.6 c-0.8-1.6-2.1-2.9-3.7-3.9c-1.8-1-4-1-5.7,0.2l-3,2.1c-0.1,0-0.1,0.1-0.1,0.1c-1.9,1-3.4,2.8-3.9,5.1 C488.2,69.3,489.6,72.4,492.4,74z"/>
		<path class="two" d="M360.5,91.6c-2.5-0.6-5.2,0.8-6.1,3.4c-1,2.7,0.5,5.7,3.2,6.7c1,0.3,2,0.5,3,0.5c2.5,0,5-1,6.9-2.8 c2.1-2,2.2-5.3,0.2-7.4C365.7,89.9,362.6,89.8,360.5,91.6z"/>
		<path class="two" d="M20.8,131.2c0.9,0.2,1.7,0.3,2.6,0.3c1.9,0,3.7-0.5,5.2-1.5c1.3-0.8,2.2-2.1,2.4-3.6c0.2-1.5-0.2-3-1.2-4.2 c-0.4-0.4-0.6-1.5-0.9-2.7c-0.3-1.3-0.6-2.7-1.2-3.9c-0.9-2.3-3.4-3.5-5.6-3.2c-0.5-0.7-1.3-1.3-2.2-1.6c-2.7-1.1-5.7,0.2-6.8,2.9 c-1.9,4.6-1.7,9,0.5,12.5C15.3,128.7,17.8,130.5,20.8,131.2z"/>
		<path class="two" d="M569.4,365.9c-4.9,0.8-8.8,3.4-13.6,4.2c-6.6,1.1-3.8,11.2,2.8,10.1c4.9-0.8,8.8-3.4,13.6-4.2 C578.8,374.8,576,364.8,569.4,365.9z"/>
		<path class="two" d="M186.9,279.8v11.9c0,0.3,0,0.7,0.6,1.2c0.8,0.7,1.1,0.7,1.3,0.7l23.8-11.2l1.2-0.6c0.8-0.4,1.6-0.5,2.4-0.5 c1.1,0,2.1,0.3,3,0.9c1.6,1,2.6,2.8,2.6,4.7v95.8c0,1.3,0.4,2.3,1.4,3.2c0,0,0,0,0,0c0.9,1,1.9,1.4,3.2,1.4h7.9 c1.4,0,2.4-0.4,3.3-1.3c1-1,1.3-1.9,1.3-3.3V261.5c0-1.4-0.4-2.4-1.3-3.3c-0.9-0.9-1.9-1.3-3.3-1.3h-7.6c-2,0-4.3,0.6-6.8,1.9 l-7.4,3.9l-22.9,12.1c-0.9,0.4-1.5,1.1-2,2C187.2,277.8,186.9,278.8,186.9,279.8z"/>
		<path class="two" d="M281.9,357.2h53.7c3.1,0,5.6,2.5,5.6,5.6v20c0,1.3,0.4,2.2,1.4,3.2c1,1,1.9,1.4,3.2,1.4h7.9 c1.4,0,2.4-0.4,3.2-1.3c1-1,1.4-2,1.4-3.3v-20c0-3.1,2.5-5.6,5.6-5.6h13.4c1.4,0,2.4-0.4,3.2-1.3c1-1,1.3-1.9,1.3-3.3v-5.5 c0-1.3-0.4-2.3-1.4-3.2c-1-0.9-1.9-1.4-3.2-1.4H364c-3.1,0-5.6-2.5-5.6-5.6v-75.4c0-1.4-0.4-2.4-1.3-3.3c-0.9-0.9-1.9-1.3-3.3-1.3 h-10.6c-1.5,0-2.8,0.3-4.2,1.1c-1.3,0.7-2.4,1.7-3.3,3l-56.9,80.2c-0.9,1.4-1.4,2.9-1.4,4.7v6.8c0,1.3,0.4,2.3,1.4,3.2 C279.7,356.8,280.6,357.2,281.9,357.2z M300.3,333.6l30.8-42.7c1.4-2,4-2.8,6.3-2.1c2.3,0.7,3.9,2.9,3.9,5.3v42.7 c0,3.1-2.5,5.6-5.6,5.6h-30.8c-2.1,0-4-1.2-5-3.1C298.9,337.6,299,335.3,300.3,333.6z"/>
	</g>
</svg>
